<svg width="30" height="30" viewBox="0 0 30 30" fill="none" xmlns="http://www.w3.org/2000/svg">
<path d="M26.6666 15H14.9999C14.5579 15 14.134 15.1756 13.8214 15.4882C13.5088 15.8007 13.3333 16.2246 13.3333 16.6667V26.6667C13.3333 27.1087 13.5088 27.5326 13.8214 27.8452C14.134 28.1577 14.5579 28.3333 14.9999 28.3333H26.6666C27.1086 28.3333 27.5325 28.1577 27.8451 27.8452C28.1577 27.5326 28.3333 27.1087 28.3333 26.6667V16.6667C28.3333 16.2246 28.1577 15.8007 27.8451 15.4882C27.5325 15.1756 27.1086 15 26.6666 15ZM14.9999 26.6667V16.6667H26.6666V26.6667H14.9999Z" fill="#202020"/>
<path d="M17.5001 18.0835C17.3454 18.0835 17.197 18.145 17.0876 18.2544C16.9782 18.3637 16.9167 18.5121 16.9167 18.6668V24.9085C16.9167 25.0632 16.9782 25.2116 17.0876 25.321C17.197 25.4304 17.3454 25.4918 17.5001 25.4918C17.6548 25.4918 17.8032 25.4304 17.9126 25.321C18.022 25.2116 18.0834 25.0632 18.0834 24.9085V18.6668C18.0834 18.5121 18.022 18.3637 17.9126 18.2544C17.8032 18.145 17.6548 18.0835 17.5001 18.0835Z" fill="#202020"/>
<path d="M20.8333 18.1831C20.6786 18.1831 20.5303 18.2446 20.4209 18.354C20.3115 18.4634 20.25 18.6117 20.25 18.7664V24.9998C20.25 25.1545 20.3115 25.3029 20.4209 25.4123C20.5303 25.5216 20.6786 25.5831 20.8333 25.5831C20.988 25.5831 21.1364 25.5216 21.2458 25.4123C21.3552 25.3029 21.4167 25.1545 21.4167 24.9998V18.7664C21.4167 18.6117 21.3552 18.4634 21.2458 18.354C21.1364 18.2446 20.988 18.1831 20.8333 18.1831Z" fill="#202020"/>
<path d="M24.1666 18.0835C24.0119 18.0835 23.8635 18.145 23.7541 18.2544C23.6447 18.3637 23.5833 18.5121 23.5833 18.6668V24.9085C23.5833 25.0632 23.6447 25.2116 23.7541 25.321C23.8635 25.4304 24.0119 25.4918 24.1666 25.4918C24.3213 25.4918 24.4697 25.4304 24.5791 25.321C24.6885 25.2116 24.7499 25.0632 24.7499 24.9085V18.6668C24.7499 18.5121 24.6885 18.3637 24.5791 18.2544C24.4697 18.145 24.3213 18.0835 24.1666 18.0835Z" fill="#202020"/>
<path d="M14.9999 13.3333H23.3333V6.7666C23.3333 5.3666 18.8499 4.2666 13.3333 4.2666C7.81659 4.2666 3.33325 5.3666 3.33325 6.7666V23.3333C3.33325 24.5833 6.94159 25.6249 11.6666 25.8333V21.0166C9.40517 20.9702 7.1613 20.6084 4.99992 19.9416V18.6999L5.19992 18.7833C7.2908 19.4569 9.47012 19.8164 11.6666 19.8499V16.6666C11.6693 16.2467 11.7513 15.8311 11.9083 15.4416C9.56532 15.4151 7.2385 15.0502 4.99992 14.3583V13.1249L5.19992 13.1999C7.62649 13.9588 10.1576 14.3301 12.6999 14.2999C13.3125 13.6921 14.137 13.3456 14.9999 13.3333ZM4.99992 8.78327V7.5416L5.19992 7.6166C7.83184 8.42986 10.5797 8.80431 13.3333 8.72494C16.1595 8.83284 18.9821 8.43203 21.6666 7.5416V8.7916C18.9629 9.58932 16.1513 9.96044 13.3333 9.8916C10.5147 9.95897 7.70291 9.58501 4.99992 8.78327Z" fill="#202020"/>
</svg>
