<svg width="31" height="30" viewBox="0 0 31 30" fill="none" xmlns="http://www.w3.org/2000/svg">
<path d="M1.47925 8.25C1.47925 7.36333 1.65117 6.48534 1.98519 5.66619C2.31921 4.84705 2.80878 4.1028 3.42594 3.47597C4.0431 2.84913 4.77575 2.352 5.58204 2.01295C6.38833 1.67391 7.25246 1.49961 8.12506 1.5C9.43877 1.50059 10.7228 1.89698 11.8148 2.63904C12.9069 3.3811 13.7578 4.43551 14.2602 5.66897C14.7625 6.90242 14.8936 8.25952 14.637 9.5687C14.3803 10.8779 13.7474 12.0803 12.8183 13.024C11.8891 13.9677 10.7055 14.6103 9.41698 14.8705C8.12847 15.1307 6.79296 14.9969 5.57931 14.4859C4.36566 13.9749 3.32836 13.1098 2.59857 11.9998C1.86877 10.8898 1.47925 9.5849 1.47925 8.25ZM10.9254 9.594L9.60125 10.9395V8.625C9.60125 8.08317 9.4962 7.54665 9.29209 7.04609C9.08799 6.54552 8.78884 6.09072 8.41172 5.70765C8.0346 5.32459 7.58691 5.02078 7.09421 4.81357C6.60152 4.60635 6.07348 4.4998 5.54025 4.5H5.1712C4.97545 4.5 4.78771 4.57902 4.64929 4.71967C4.51087 4.86032 4.43311 5.05109 4.43311 5.25C4.43311 5.44891 4.51087 5.63968 4.64929 5.78033C4.78771 5.92098 4.97545 6 5.1712 6H5.54025C6.96772 6 8.12358 7.176 8.12358 8.625V10.9395L6.80091 9.594C6.66232 9.45317 6.47435 9.37405 6.27834 9.37405C6.08234 9.37405 5.89437 9.45317 5.75577 9.594C5.61718 9.73483 5.53932 9.92584 5.53932 10.125C5.53932 10.3242 5.61718 10.5152 5.75577 10.656L8.34353 13.284C8.48203 13.4237 8.66939 13.5018 8.8645 13.5012C9.05962 13.5007 9.24654 13.4215 9.38425 13.281L11.9691 10.656C12.0377 10.5864 12.0921 10.5037 12.1293 10.4127C12.1665 10.3216 12.1857 10.2241 12.1857 10.1255C12.1858 10.027 12.1668 9.92939 12.1297 9.83832C12.0927 9.74725 12.0383 9.66448 11.9698 9.59475C11.9013 9.52502 11.8199 9.46969 11.7303 9.43191C11.6407 9.39413 11.5447 9.37465 11.4477 9.37458C11.3508 9.37451 11.2547 9.39386 11.1651 9.4315C11.0755 9.46915 10.994 9.52437 10.9254 9.594ZM2.94658 14.61C4.20483 15.6691 5.74936 16.3161 7.37663 16.4655V21.7515C7.37643 22.3482 7.14296 22.9205 6.72756 23.3423C6.31216 23.7641 5.74887 24.0009 5.16161 24.0007C4.57434 24.0006 4.01121 23.7633 3.59608 23.3412C3.18096 22.9191 2.94786 22.3467 2.94806 21.75L2.94658 14.61ZM16.2087 9C16.0355 10.922 15.2049 12.7216 13.8613 14.0858C12.5177 15.4501 10.746 16.2926 8.8543 16.467V21H20.6668V9H16.2087ZM24.3587 6C23.7715 6 23.2082 6.23705 22.793 6.65901C22.3777 7.08097 22.1444 7.65326 22.1444 8.25V21.75C22.1444 22.3469 22.3778 22.9194 22.7932 23.3415C23.2086 23.7636 23.772 24.0007 24.3595 24.0007C24.9469 24.0007 25.5103 23.7636 25.9257 23.3415C26.3411 22.9194 26.5745 22.3469 26.5745 21.75V8.25C26.5745 7.65326 26.3412 7.08097 25.9259 6.65901C25.5107 6.23705 24.9475 6 24.3602 6H24.3587Z" fill="#202020"/>
</svg>
