<svg width="30" height="30" viewBox="0 0 30 30" fill="none" xmlns="http://www.w3.org/2000/svg">
<path d="M1.73755 22.9498L3.95005 20.7498L5.72505 22.4998L7.05005 21.1873L5.27505 19.4248L7.05005 17.6498L10.1375 20.7498L11.4625 19.4248L8.37505 16.3248L10.1375 14.5623L11.9125 16.3248L13.2375 14.9998L11.4625 13.2373L13.2375 11.4623L16.325 14.5623L17.65 13.2373L14.5625 10.1373L16.325 8.3748L18.0875 10.1373L19.425 8.8123L17.65 7.0498L19.425 5.2748L22.5 8.3748L23.8375 7.0498L20.75 3.9498L22.9501 1.7373L28.2626 7.0498L7.05005 28.2623L1.73755 22.9498Z" fill="#202020"/>
</svg>
