<svg width="30" height="30" viewBox="0 0 30 30" fill="none" xmlns="http://www.w3.org/2000/svg">
<path d="M13.0625 19.375C13.5625 19.875 14.2083 20.12 15 20.11C15.7917 20.1 16.375 19.8133 16.75 19.25L22.0312 11.3438C22.2188 11.0521 22.1929 10.7863 21.9538 10.5463C21.7146 10.3063 21.4487 10.2804 21.1562 10.4688L13.25 15.75C12.6875 16.125 12.3908 16.6979 12.36 17.4688C12.3292 18.2396 12.5633 18.875 13.0625 19.375ZM6.375 25C5.9375 25 5.52083 24.8958 5.125 24.6875C4.72917 24.4792 4.41667 24.1875 4.1875 23.8125C3.64583 22.875 3.22917 21.88 2.9375 20.8275C2.64583 19.775 2.5 18.6658 2.5 17.5C2.5 15.7708 2.82833 14.1508 3.485 12.64C4.14167 11.1292 5.0375 9.80667 6.1725 8.6725C7.3075 7.53667 8.635 6.64042 10.155 5.98375C11.675 5.32709 13.29 4.99917 15 5C15.9375 5 16.8438 5.09917 17.7188 5.2975C18.5938 5.49583 19.4375 5.7925 20.25 6.1875C20.6875 6.41667 20.9429 6.72917 21.0163 7.125C21.0896 7.52083 20.98 7.89583 20.6875 8.25C20.5208 8.4375 20.2917 8.55208 20 8.59375C19.7083 8.63542 19.4479 8.60417 19.2188 8.5C18.5521 8.16667 17.8646 7.91667 17.1562 7.75C16.4479 7.58333 15.7292 7.5 15 7.5C12.2292 7.5 9.86958 8.47417 7.92125 10.4225C5.97292 12.3708 4.99917 14.73 5 17.5C5 18.375 5.12 19.2396 5.36 20.0938C5.6 20.9479 5.93833 21.75 6.375 22.5H23.625C24.1042 21.7083 24.4533 20.8854 24.6725 20.0313C24.8917 19.1771 25.0008 18.2917 25 17.375C25 16.6458 24.9113 15.9321 24.7338 15.2338C24.5563 14.5354 24.3012 13.8638 23.9688 13.2188C23.8229 12.9479 23.7812 12.6667 23.8438 12.375C23.9063 12.0833 24.0521 11.8438 24.2812 11.6563C24.6146 11.3646 24.9792 11.2813 25.375 11.4063C25.7708 11.5313 26.0625 11.8021 26.25 12.2188C26.625 13.0104 26.9167 13.8283 27.125 14.6725C27.3333 15.5167 27.4583 16.3967 27.5 17.3125C27.5 18.5 27.3592 19.6354 27.0775 20.7188C26.7958 21.8021 26.3742 22.8333 25.8125 23.8125C25.5833 24.1875 25.2708 24.4792 24.875 24.6875C24.4792 24.8958 24.0625 25 23.625 25H6.375Z" fill="#202020"/>
</svg>
