<svg width="30" height="30" viewBox="0 0 30 30" fill="none" xmlns="http://www.w3.org/2000/svg">
<path d="M15 2.5C8.1 2.5 2.5 8.1 2.5 15C2.5 21.9 8.1 27.5 15 27.5C21.9 27.5 27.5 21.9 27.5 15C27.5 8.1 21.9 2.5 15 2.5ZM19.5125 10.425C20.85 10.425 21.925 11.5 21.925 12.8375C21.925 14.175 20.85 15.25 19.5125 15.25C18.175 15.25 17.1 14.175 17.1 12.8375C17.0875 11.5 18.175 10.425 19.5125 10.425ZM12.0125 8.45C13.6375 8.45 14.9625 9.775 14.9625 11.4C14.9625 13.025 13.6375 14.35 12.0125 14.35C10.3875 14.35 9.0625 13.025 9.0625 11.4C9.0625 9.7625 10.375 8.45 12.0125 8.45ZM12.0125 19.8625V24.55C9.0125 23.6125 6.6375 21.3 5.5875 18.35C6.9 16.95 10.175 16.2375 12.0125 16.2375C12.675 16.2375 13.5125 16.3375 14.3875 16.5125C12.3375 17.6 12.0125 19.0375 12.0125 19.8625ZM15 25C14.6625 25 14.3375 24.9875 14.0125 24.95V19.8625C14.0125 18.0875 17.6875 17.2 19.5125 17.2C20.85 17.2 23.1625 17.6875 24.3125 18.6375C22.85 22.35 19.2375 25 15 25Z" fill="#202020"/>
</svg>
