<svg width="30" height="30" viewBox="0 0 30 30" fill="none" xmlns="http://www.w3.org/2000/svg">
<path d="M15 2.69531C12.3589 2.69531 10.1953 4.85895 10.1953 7.5C10.1953 9.01242 10.9056 10.3673 12.0081 11.25H7.5L1.875 28.125H28.125L22.5 11.25H17.9919C19.0944 10.3673 19.8047 9.01242 19.8047 7.5C19.8047 4.85895 17.6411 2.69531 15 2.69531ZM15 4.80469C16.5011 4.80469 17.6953 5.99895 17.6953 7.5C17.6953 9.00105 16.5011 10.1953 15 10.1953C13.4989 10.1953 12.3047 9.00105 12.3047 7.5C12.3047 5.99895 13.4989 4.80469 15 4.80469ZM10.1827 16.6963H11.5597V18.6453L13.5444 16.6962H15.143L12.5718 19.2246L15.4077 22.0355H13.684L11.5597 19.9327V22.0355H10.1827V16.6963ZM17.2101 17.9408C17.489 17.9408 17.7346 17.9955 17.9468 18.1052C18.1589 18.2149 18.3533 18.3877 18.5298 18.6238V18.0302H19.8172V21.6315C19.8172 22.2752 19.6133 22.7664 19.2056 23.1049C18.8003 23.4459 18.2114 23.6163 17.4389 23.6163C17.1886 23.6163 16.9467 23.5972 16.7129 23.5591C16.4738 23.5196 16.2382 23.461 16.0084 23.3839V22.386C16.2326 22.5148 16.452 22.6102 16.6664 22.6722C16.8811 22.7365 17.0969 22.7688 17.3139 22.7688C17.7335 22.7688 18.041 22.677 18.2365 22.4934C18.432 22.3099 18.5298 22.0226 18.5298 21.6316V21.3562C18.3534 21.5897 18.159 21.7614 17.9468 21.8711C17.7347 21.9807 17.489 22.0356 17.2101 22.0356C16.7212 22.0356 16.3172 21.8438 15.9978 21.4599C15.6783 21.0737 15.5185 20.5825 15.5185 19.9865C15.5185 19.388 15.6783 18.8981 15.9978 18.5166C16.3172 18.1328 16.7212 17.9408 17.2101 17.9408ZM17.6858 18.8634C17.4211 18.8634 17.2148 18.9613 17.067 19.1567C16.9192 19.3523 16.8453 19.6288 16.8453 19.9865C16.8453 20.3537 16.9168 20.6326 17.0599 20.8232C17.2029 21.0116 17.4116 21.1058 17.6858 21.1058C17.9528 21.1058 18.1601 21.008 18.308 20.8125C18.4558 20.617 18.5297 20.3416 18.5297 19.9864C18.5297 19.6288 18.4558 19.3522 18.308 19.1568C18.1601 18.9612 17.9528 18.8634 17.6857 18.8634H17.6858Z" fill="#202020"/>
</svg>
