<?xml version="1.0" encoding="utf-8"?><svg xmlns="http://www.w3.org/2000/svg" xmlns:xlink="http://www.w3.org/1999/xlink"><symbol viewBox="0 0 20 12" id="arrowbottom" xmlns="http://www.w3.org/2000/svg"><path d="M20 2L10 12 0 2 1.775.225 10 8.45 18.225.225 20 2z"/></symbol><symbol viewBox="0 0 6 10" id="arrowright" xmlns="http://www.w3.org/2000/svg"><path d="M.575 9.55a.607.607 0 01-.188-.444c0-.17.063-.319.188-.444L4.237 5 .562 1.325A.594.594 0 01.387.887c0-.174.063-.325.188-.45A.607.607 0 011.019.25c.17 0 .318.063.443.188l4.2 4.212a.444.444 0 01.137.35c0 .067-.01.13-.03.188a.441.441 0 01-.107.162L1.45 9.563a.586.586 0 01-.431.175.607.607 0 01-.444-.188z"/></symbol><symbol viewBox="0 0 20 12" id="arrowtop" xmlns="http://www.w3.org/2000/svg"><g clip-path="url(#cclip0_405_521)"><path d="M0 10L10 0l10 10-1.775 1.775L10 3.55l-8.225 8.225L0 10z"/></g><defs><clipPath id="cclip0_405_521"><path transform="rotate(90 10 10)" d="M0 0h12v20H0z"/></clipPath></defs></symbol><symbol viewBox="0 0 30 30" id="battery" xmlns="http://www.w3.org/2000/svg"><path d="M19.587 5H17.5V2.5h-5V5h-2.088A1.67 1.67 0 008.75 6.662v19.163c0 .925.75 1.675 1.662 1.675h9.163c.925 0 1.675-.75 1.675-1.663V6.663A1.67 1.67 0 0019.587 5zM13.75 25v-6.875h-2.5l5-9.375v6.875h2.5l-5 9.375z"/></symbol><symbol viewBox="0 0 28 28" id="call" xmlns="http://www.w3.org/2000/svg"><path d="M28 19.45v6.84c0 .476-.192.931-.534 1.262a1.582 1.582 0 01-1.17.446 27.438 27.438 0 01-18.257-8.036A27.438 27.438 0 01.001 1.703 1.58 1.58 0 01.448.533 1.76 1.76 0 011.71 0h6.84a1.69 1.69 0 011.662 1.442l.904 6.324a1.688 1.688 0 01-.475 1.425l-2.683 2.683a.564.564 0 00-.094.683 22.965 22.965 0 007.578 7.578c.223.129.504.09.684-.094l2.682-2.682a1.686 1.686 0 011.426-.475l6.324.903A1.689 1.689 0 0128 19.45z"/></symbol><symbol viewBox="0 0 24 24" id="characteristics1" xmlns="http://www.w3.org/2000/svg"><path d="M14.83 11.17a4.008 4.008 0 010 5.66 4.008 4.008 0 01-5.66 0l5.66-5.66zM6 2h12a2 2 0 012 2v16a2 2 0 01-2 2H6a2 2 0 01-2-2V4a2 2 0 012-2zm1 2a1 1 0 100 2 1 1 0 000-2zm3 0a1 1 0 100 2 1 1 0 000-2zm2 4a6 6 0 100 12 6 6 0 000-12z"/></symbol><symbol viewBox="0 0 18 18" id="characteristics2" xmlns="http://www.w3.org/2000/svg"><g clip-path="url(#gclip0_415_536)"><path d="M1.125 14.625A3.375 3.375 0 004.5 18h9a3.375 3.375 0 003.375-3.375V13.5H1.125v1.125zm16.313-4.5h-3.375V9h2.25a.562.562 0 00.562-.563v-.562a.563.563 0 00-.563-.563H13.5a1.125 1.125 0 00-1.125 1.125v1.688h-2.25v-6.75a1.125 1.125 0 112.25 0v.562a.563.563 0 00.563.563h1.124a.562.562 0 00.563-.563v-.562a3.38 3.38 0 00-4.047-3.31c-1.603.311-2.703 1.81-2.703 3.443v6.617h-2.25V8.437A1.125 1.125 0 004.5 7.312H1.687a.563.563 0 00-.562.563v.562A.563.563 0 001.688 9h2.25v1.125H.562a.562.562 0 00-.562.562v1.125a.562.562 0 00.563.563h16.875a.562.562 0 00.562-.563v-1.125a.563.563 0 00-.563-.562z"/></g><defs><clipPath id="gclip0_415_536"><path d="M0 0h18v18H0z"/></clipPath></defs></symbol><symbol viewBox="0 0 22 22" id="characteristics3" xmlns="http://www.w3.org/2000/svg"><path fill-rule="evenodd" clip-rule="evenodd" d="M16.5 2.667c-1.426 0-2.414.616-3.011 1.446-.303.42-.493.876-.605 1.303h-.967a1 1 0 100 2h3.666a1 1 0 100-2h-.559c.027-.045.056-.09.088-.134.227-.315.614-.615 1.388-.615.774 0 1.161.3 1.389.615.263.366.361.836.361 1.135V10H2.75a1 1 0 00-.083 1.996v.837c0 1.062.465 3.083 2.263 4.085l-.375 1.089a1 1 0 001.89.652l.407-1.178c.156.012.317.019.481.019h7.33c.162.001.324-.005.485-.019l.407 1.178a1 1 0 001.89-.652l-.375-1.089c1.799-1.002 2.263-3.023 2.263-4.085v-1.115a1.914 1.914 0 00.917-1.635V6.416a4.07 4.07 0 00-.738-2.303c-.598-.83-1.586-1.447-3.012-1.447z"/></symbol><symbol viewBox="0 0 18 18" id="characteristics4" xmlns="http://www.w3.org/2000/svg"><g clip-path="url(#iclip0_415_542)"><path d="M15.919 18H4.304a.252.252 0 01-.05-.181c0-.229-.005-.457 0-.685.004-.197.042-.235.241-.238.54-.005 1.08 0 1.619 0 .243 0 .249-.006.25-.243 0-.685-.004-1.37.002-2.055 0-.161-.05-.258-.197-.332a5.59 5.59 0 01-2.013-1.719 4.856 4.856 0 01-.926-2.485c-.01-.11-.04-.22-.033-.332.01-.14-.062-.181-.191-.18-.505.002-1.009 0-1.513 0-.322 0-.34-.016-.382-.34C.864 7.255.62 5.302.376 3.35.276 2.553.179 1.76.075.963.045.715.057.463.01.216-.03.036.04 0 .222 0c2.066.008 4.13.005 6.193.005.076.094.054.2.054.304v8.767c0 .391-.024.363.362.363h9.783c.415 0 .441.042.402.46-.053.557-.155 1.1-.366 1.622-.428 1.051-1.15 1.851-2.1 2.457a5.056 5.056 0 01-.536.304.251.251 0 00-.154.25v2.162c0 .14.054.198.197.197.516-.003 1.033 0 1.55 0 .07-.002.14 0 .21.009.077.01.141.047.144.129.025.303.023.608-.006.912a.13.13 0 01-.036.059z"/><path d="M18 7.632a.437.437 0 01-.024.081c-.191.484-.544.727-1.067.727h-5.56c-1.238 0-2.476-.003-3.713.004-.143 0-.172-.042-.168-.174.01-.292 0-.586.004-.878a1.049 1.049 0 011.06-1.06h8.428c.494 0 .89.304 1.03.776a.22.22 0 01.01.068v.456z"/></g><defs><clipPath id="iclip0_415_542"><path d="M0 0h18v18H0z"/></clipPath></defs></symbol><symbol viewBox="0 0 25 25" id="close" xmlns="http://www.w3.org/2000/svg"><path d="M23.649 0L12.5 11.149 1.351 0 0 1.351 11.149 12.5 0 23.649 1.351 25 12.5 13.851 23.649 25 25 23.649 13.851 12.5 25 1.351 23.649 0z"/></symbol><symbol viewBox="0 0 30 30" id="container" xmlns="http://www.w3.org/2000/svg"><path d="M26.667 15H15a1.667 1.667 0 00-1.667 1.667v10A1.667 1.667 0 0015 28.333h11.667a1.667 1.667 0 001.666-1.666v-10A1.666 1.666 0 0026.667 15zM15 26.667v-10h11.667v10H15z"/><path d="M17.5 18.084a.583.583 0 00-.583.583v6.241a.583.583 0 001.166 0v-6.241a.583.583 0 00-.583-.584zm3.333.099a.583.583 0 00-.583.583V25a.583.583 0 001.167 0v-6.234a.583.583 0 00-.584-.583zm3.334-.099a.583.583 0 00-.584.583v6.241a.583.583 0 101.167 0v-6.241a.583.583 0 00-.583-.584z"/><path d="M15 13.333h8.333V6.767c0-1.4-4.483-2.5-10-2.5-5.516 0-10 1.1-10 2.5v16.566c0 1.25 3.609 2.292 8.334 2.5v-4.816A24.306 24.306 0 015 19.942V18.7l.2.083a22.19 22.19 0 006.467 1.067v-3.183c.002-.42.084-.836.241-1.225A24.326 24.326 0 015 14.358v-1.233l.2.075a24.165 24.165 0 007.5 1.1 3.333 3.333 0 012.3-.967zM5 8.783V7.542l.2.075a25.1 25.1 0 008.133 1.108 23.609 23.609 0 008.334-1.183v1.25a27.108 27.108 0 01-8.334 1.1A27.033 27.033 0 015 8.783z"/></symbol><symbol viewBox="0 0 31 30" id="fluent" xmlns="http://www.w3.org/2000/svg"><path d="M1.48 8.25c0-.887.171-1.765.505-2.584a6.758 6.758 0 011.44-2.19 6.637 6.637 0 012.157-1.463 6.552 6.552 0 016.233.626 6.728 6.728 0 012.445 3.03 6.852 6.852 0 01.377 3.9 6.785 6.785 0 01-1.819 3.455 6.611 6.611 0 01-3.401 1.847 6.545 6.545 0 01-3.838-.385A6.667 6.667 0 012.6 12a6.828 6.828 0 01-1.12-3.75zm9.445 1.344L9.601 10.94V8.625c0-.542-.105-1.078-.309-1.579a4.13 4.13 0 00-.88-1.338 4.056 4.056 0 00-1.318-.894A4.003 4.003 0 005.54 4.5h-.369a.732.732 0 00-.522.22.756.756 0 000 1.06c.139.141.326.22.522.22h.37c1.427 0 2.583 1.176 2.583 2.625v2.315L6.8 9.594a.733.733 0 00-1.045 0 .757.757 0 000 1.062l2.588 2.628a.73.73 0 001.04-.003l2.585-2.625a.752.752 0 00.217-.53.76.76 0 00-.216-.531.737.737 0 00-.522-.22.728.728 0 00-.523.219zM2.947 14.61a8.017 8.017 0 004.43 1.855v5.287c0 .596-.234 1.169-.65 1.59a2.197 2.197 0 01-1.565.659c-.588 0-1.15-.238-1.566-.66a2.269 2.269 0 01-.648-1.591l-.001-7.14zM16.209 9a8.31 8.31 0 01-2.348 5.086 8.068 8.068 0 01-5.007 2.381V21h11.813V9h-4.458zm8.15-3c-.588 0-1.15.237-1.566.659a2.268 2.268 0 00-.649 1.591v13.5c0 .597.234 1.17.65 1.591.415.423.978.66 1.566.66.587 0 1.15-.237 1.566-.66a2.27 2.27 0 00.649-1.591V8.25c0-.597-.234-1.169-.65-1.591A2.196 2.196 0 0024.36 6h-.001z"/></symbol><symbol viewBox="0 0 20 12" id="next" xmlns="http://www.w3.org/2000/svg"><path d="M20 2L10 12 0 2 1.775.225 10 8.45 18.225.225 20 2z"/></symbol><symbol viewBox="0 0 30 34" id="play" xmlns="http://www.w3.org/2000/svg"><path d="M6.753.63C3.764-1.142 0 1.035 0 4.534v24.932c0 3.499 3.764 5.676 6.753 3.904l21.033-12.464c2.952-1.75 2.952-6.06 0-7.809L6.753.63z"/></symbol><symbol viewBox="0 0 20 12" id="prev" xmlns="http://www.w3.org/2000/svg"><g clip-path="url(#oclip0_405_521)"><path d="M0 10L10 0l10 10-1.775 1.775L10 3.55l-8.225 8.225L0 10z"/></g><defs><clipPath id="oclip0_405_521"><path transform="rotate(90 10 10)" d="M0 0h12v20H0z"/></clipPath></defs></symbol><symbol viewBox="0 0 30 30" id="ruler" xmlns="http://www.w3.org/2000/svg"><path d="M1.738 22.95l2.212-2.2 1.775 1.75 1.325-1.313-1.775-1.762L7.05 17.65l3.087 3.1 1.325-1.325-3.087-3.1 1.762-1.763 1.775 1.763L13.237 15l-1.774-1.763 1.775-1.775 3.087 3.1 1.325-1.325-3.087-3.1 1.762-1.762 1.762 1.762 1.338-1.325L17.65 7.05l1.775-1.775 3.075 3.1 1.337-1.325-3.087-3.1 2.2-2.213 5.313 5.313L7.05 28.262 1.738 22.95z"/></symbol><symbol viewBox="0 0 30 30" id="speed" xmlns="http://www.w3.org/2000/svg"><path d="M13.063 19.375c.5.5 1.145.745 1.937.735.792-.01 1.375-.297 1.75-.86l5.281-7.906c.188-.292.162-.558-.077-.798-.24-.24-.505-.266-.798-.077L13.25 15.75c-.563.375-.86.948-.89 1.719-.03.77.203 1.406.703 1.906zM6.375 25a2.64 2.64 0 01-1.25-.313 2.371 2.371 0 01-.938-.875A12.406 12.406 0 012.5 17.5c.001-1.728.33-3.348.986-4.859a12.719 12.719 0 012.688-3.968 12.679 12.679 0 013.982-2.688A12.07 12.07 0 0115 5c.938 0 1.844.1 2.719.298.875.198 1.718.495 2.531.89.438.229.693.541.766.937.074.396-.036.77-.328 1.125-.167.188-.396.302-.688.344-.292.041-.552.01-.781-.094A9.382 9.382 0 0015 7.5c-2.77 0-5.13.974-7.079 2.922C5.973 12.371 5 14.73 5 17.5c0 .875.12 1.74.36 2.594.24.854.578 1.656 1.015 2.406h17.25a9.138 9.138 0 001.047-2.469c.22-.854.329-1.74.328-2.656 0-.73-.089-1.443-.266-2.141a9.486 9.486 0 00-.765-2.015 1.198 1.198 0 01-.125-.844c.062-.292.208-.531.437-.719.334-.291.698-.375 1.094-.25.396.125.688.396.875.813.375.791.667 1.61.875 2.454.208.844.333 1.724.375 2.64 0 1.187-.14 2.322-.422 3.406a12.528 12.528 0 01-1.265 3.093c-.23.375-.542.667-.938.875a2.648 2.648 0 01-1.25.313H6.375z"/></symbol><symbol viewBox="0 0 30 30" id="supervised" xmlns="http://www.w3.org/2000/svg"><path d="M15 2.5C8.1 2.5 2.5 8.1 2.5 15S8.1 27.5 15 27.5 27.5 21.9 27.5 15 21.9 2.5 15 2.5zm4.512 7.925a2.406 2.406 0 012.413 2.412 2.406 2.406 0 01-2.413 2.413 2.406 2.406 0 01-2.412-2.412 2.398 2.398 0 012.412-2.413zm-7.5-1.975a2.955 2.955 0 012.95 2.95 2.955 2.955 0 01-2.95 2.95 2.955 2.955 0 01-2.95-2.95 2.94 2.94 0 012.95-2.95zm0 11.413v4.687a10.01 10.01 0 01-6.425-6.2c1.313-1.4 4.588-2.113 6.425-2.113.663 0 1.5.1 2.375.276-2.05 1.087-2.375 2.524-2.375 3.35zM15 25c-.338 0-.662-.012-.988-.05v-5.087c0-1.776 3.675-2.663 5.5-2.663 1.338 0 3.65.488 4.8 1.438C22.85 22.35 19.238 25 15 25z"/></symbol><symbol viewBox="0 0 28 28" id="wa" xmlns="http://www.w3.org/2000/svg"><path fill-rule="evenodd" clip-rule="evenodd" d="M14 0C6.262 0 0 6.258 0 14c0 2.92.89 5.62 2.472 7.94a.7.7 0 01.087.602L1.137 27.3l4.66-1.608a.7.7 0 01.602.077 13.917 13.917 0 007.6 2.231C21.743 28 28 21.742 28 14S21.742 0 14 0zM8.27 6.103l2.548 4.211-1.06 1.05a.7.7 0 00-.11.842c1.62 2.804 3.537 4.985 6.223 6.17a.7.7 0 00.777-.143l1.127-1.126 4.112 2.57c-.455 1.025-1.049 1.635-1.728 1.99-.787.412-1.747.49-2.844.263-2.193-.455-4.841-2.178-7-4.386-2.158-2.208-3.829-4.893-4.254-7.077-.213-1.092-.12-2.033.284-2.778.347-.642.937-1.192 1.925-1.586z"/></symbol><symbol viewBox="0 0 30 30" id="water" xmlns="http://www.w3.org/2000/svg"><path d="M12.5 4.063S20 12.5 20 17.5c0 4.137-3.363 7.5-7.5 7.5A7.506 7.506 0 015 17.5c0-5 7.5-13.438 7.5-13.438zM25 8.75v7.5h-2.5v-7.5H25zm-2.5 12.5H25v-2.5h-2.5v2.5z"/></symbol><symbol viewBox="0 0 30 30" id="weight" xmlns="http://www.w3.org/2000/svg"><path d="M15 2.695c-2.641 0-4.805 2.164-4.805 4.805 0 1.512.71 2.867 1.813 3.75H7.5L1.875 28.125h26.25L22.5 11.25h-4.508a4.802 4.802 0 001.813-3.75c0-2.641-2.164-4.805-4.805-4.805zm0 2.11A2.68 2.68 0 0117.695 7.5 2.68 2.68 0 0115 10.195 2.68 2.68 0 0112.305 7.5 2.68 2.68 0 0115 4.805zm-4.817 11.891h1.377v1.95l1.984-1.95h1.599l-2.571 2.529 2.836 2.81h-1.724l-2.124-2.102v2.102h-1.377v-5.339zm7.027 1.245c.279 0 .525.055.737.164.212.11.406.283.583.519v-.594h1.287v3.601c0 .644-.204 1.135-.611 1.474-.406.34-.995.511-1.767.511-.25 0-.492-.019-.726-.057a4.543 4.543 0 01-.705-.175v-.998a3 3 0 00.658.286c.215.064.43.097.648.097.42 0 .727-.092.922-.276.196-.183.294-.47.294-.861v-.276a1.754 1.754 0 01-.583.515c-.212.11-.458.165-.737.165a1.51 1.51 0 01-1.212-.576c-.32-.386-.48-.878-.48-1.474 0-.598.16-1.088.48-1.47a1.51 1.51 0 011.212-.575zm.476.922a.732.732 0 00-.619.294c-.148.195-.222.472-.222.83 0 .367.072.646.215.836.143.189.352.283.626.283.267 0 .474-.098.622-.294.148-.195.222-.47.222-.826 0-.357-.074-.634-.222-.83a.736.736 0 00-.622-.293z"/></symbol></svg>