<svg width="18" height="18" viewBox="0 0 18 18" fill="none" xmlns="http://www.w3.org/2000/svg">
<g clip-path="url(#clip0_415_536)">
<path d="M1.125 14.6246C1.125 15.5197 1.48058 16.3781 2.11351 17.0111C2.74645 17.644 3.60489 17.9996 4.5 17.9996H13.5C14.3951 17.9996 15.2536 17.644 15.8865 17.0111C16.5194 16.3781 16.875 15.5197 16.875 14.6246V13.4996H1.125V14.6246ZM17.4375 10.1246H14.0625V8.99958H16.3125C16.4617 8.99958 16.6048 8.94032 16.7102 8.83483C16.8157 8.72934 16.875 8.58626 16.875 8.43708V7.87458C16.875 7.7254 16.8157 7.58232 16.7102 7.47683C16.6048 7.37134 16.4617 7.31208 16.3125 7.31208H13.5C13.2016 7.31208 12.9155 7.43061 12.7045 7.64158C12.4935 7.85256 12.375 8.13871 12.375 8.43708V10.1246H10.125V3.37458C10.125 3.07621 10.2435 2.79006 10.4545 2.57909C10.6655 2.36811 10.9516 2.24958 11.25 2.24958C11.5484 2.24958 11.8345 2.36811 12.0455 2.57909C12.2565 2.79006 12.375 3.07621 12.375 3.37458V3.93708C12.375 4.08626 12.4343 4.22934 12.5398 4.33483C12.6452 4.44032 12.7883 4.49958 12.9375 4.49958H14.0625C14.2117 4.49958 14.3548 4.44032 14.4602 4.33483C14.5657 4.22934 14.625 4.08626 14.625 3.93708V3.37458C14.6243 2.87446 14.5127 2.38072 14.2981 1.92895C14.0836 1.47718 13.7715 1.07864 13.3843 0.762063C12.9972 0.445482 12.5446 0.218747 12.0592 0.0982033C11.5738 -0.0223407 11.0678 -0.0336907 10.5775 0.0649715C8.97504 0.376104 7.875 1.87552 7.875 3.50782V10.1246H5.625V8.43708C5.625 8.13871 5.50647 7.85256 5.2955 7.64158C5.08452 7.43061 4.79837 7.31208 4.5 7.31208H1.6875C1.53832 7.31208 1.39524 7.37134 1.28975 7.47683C1.18426 7.58232 1.125 7.7254 1.125 7.87458V8.43708C1.125 8.58626 1.18426 8.72934 1.28975 8.83483C1.39524 8.94032 1.53832 8.99958 1.6875 8.99958H3.9375V10.1246H0.5625C0.413316 10.1246 0.270242 10.1838 0.164752 10.2893C0.0592632 10.3948 0 10.5379 0 10.6871L0 11.8121C0 11.9613 0.0592632 12.1043 0.164752 12.2098C0.270242 12.3153 0.413316 12.3746 0.5625 12.3746H17.4375C17.5867 12.3746 17.7298 12.3153 17.8352 12.2098C17.9407 12.1043 18 11.9613 18 11.8121V10.6871C18 10.5379 17.9407 10.3948 17.8352 10.2893C17.7298 10.1838 17.5867 10.1246 17.4375 10.1246Z" fill="white"/>
</g>
<defs>
<clipPath id="clip0_415_536">
<rect width="18" height="18" fill="white"/>
</clipPath>
</defs>
</svg>
