<svg width="22" height="22" viewBox="0 0 22 22" fill="none" xmlns="http://www.w3.org/2000/svg">
<path fill-rule="evenodd" clip-rule="evenodd" d="M16.5 2.6665C15.0741 2.6665 14.0864 3.28304 13.4885 4.11345C13.1865 4.5328 12.9957 4.98858 12.8839 5.4165H11.9167C11.3644 5.4165 10.9167 5.86422 10.9167 6.4165C10.9167 6.96879 11.3644 7.4165 11.9167 7.4165H15.5833C16.1356 7.4165 16.5833 6.96879 16.5833 6.4165C16.5833 5.86422 16.1356 5.4165 15.5833 5.4165H15.0245C15.0512 5.37054 15.0802 5.32557 15.1115 5.28206C15.3386 4.96664 15.7259 4.6665 16.5 4.6665C17.2741 4.6665 17.6614 4.96664 17.8885 5.28206C18.1523 5.64847 18.25 6.11819 18.25 6.4165V9.99984H2.75C2.19772 9.99984 1.75 10.4476 1.75 10.9998C1.75 11.5241 2.15337 11.9541 2.66667 11.9964V12.8332C2.66667 13.8952 3.13152 15.9158 4.93034 16.9184L4.5547 18.007C4.37455 18.5291 4.65173 19.0983 5.17381 19.2785C5.69588 19.4586 6.26515 19.1814 6.4453 18.6594L6.85204 17.4806C7.00849 17.4934 7.16893 17.4998 7.33333 17.4998H14.6626C14.8248 17.5011 14.9869 17.4949 15.1482 17.4814L15.5547 18.6594C15.7348 19.1814 16.3041 19.4586 16.8262 19.2785C17.3483 19.0983 17.6255 18.5291 17.4453 18.007L17.0697 16.9184C18.8685 15.9158 19.3333 13.8952 19.3333 12.8332V11.7183C19.4614 11.64 19.5808 11.5463 19.6886 11.4385C20.0481 11.079 20.25 10.5915 20.25 10.0832V6.4165C20.25 5.79815 20.0727 4.89287 19.5115 4.11345C18.9136 3.28304 17.9259 2.6665 16.5 2.6665Z" fill="white"/>
</svg>
