<svg width="18" height="18" viewBox="0 0 18 18" fill="none" xmlns="http://www.w3.org/2000/svg">
<g clip-path="url(#clip0_415_542)">
<path d="M15.9188 18H4.30421C4.26452 17.9483 4.24635 17.8833 4.2535 17.8186C4.2535 17.5902 4.24927 17.3619 4.2535 17.1336C4.25772 16.9371 4.29576 16.8991 4.49533 16.8959C5.03488 16.8912 5.57537 16.8959 6.11398 16.8959C6.35675 16.8959 6.36286 16.8898 6.36333 16.653C6.36333 15.9675 6.35957 15.2826 6.36614 14.5976C6.36614 14.4368 6.31637 14.3402 6.16939 14.2661C5.37017 13.8624 4.67977 13.2729 4.15629 12.5473C3.62278 11.8207 3.30202 10.9604 3.22981 10.0624C3.22042 9.95129 3.19036 9.84205 3.19741 9.73046C3.20633 9.58981 3.13542 9.54855 3.00582 9.54949C2.50149 9.5523 1.99716 9.54949 1.49283 9.54949C1.17069 9.54949 1.15238 9.53402 1.11106 9.20911C0.864371 7.25557 0.619249 5.30267 0.375693 3.35039C0.276141 2.55334 0.178938 1.75865 0.0746909 0.963482C0.0441681 0.715461 0.0573164 0.463222 0.0108279 0.216139C-0.0290866 0.0356324 0.0413507 0 0.22214 0C2.2883 0.00797041 4.35117 0.00515732 6.41545 0.00515732C6.49058 0.0989269 6.46945 0.205824 6.46945 0.308971C6.46945 3.23177 6.46945 6.15425 6.46945 9.07642C6.46945 9.46744 6.44503 9.43884 6.83103 9.43884H16.6143C17.0289 9.43884 17.0552 9.48104 17.0158 9.89878C16.9627 10.4562 16.8613 10.9996 16.6495 11.5205C16.2217 12.5722 15.4995 13.3725 14.5491 13.9778C14.3773 14.0902 14.1987 14.1919 14.0142 14.282C13.9653 14.3023 13.9241 14.3374 13.8964 14.3825C13.8687 14.4275 13.8561 14.4802 13.8602 14.5329C13.8602 15.253 13.8602 15.9736 13.8602 16.6938C13.8602 16.8344 13.9137 16.8921 14.057 16.8912C14.5735 16.8879 15.09 16.8912 15.6066 16.8912C15.677 16.8891 15.7474 16.8919 15.8174 16.8996C15.8944 16.9109 15.9583 16.9465 15.9611 17.029C15.9856 17.3324 15.9836 17.6374 15.955 17.9405C15.9486 17.9632 15.9361 17.9838 15.9188 18Z" fill="white"/>
<path d="M17.9999 7.63187C17.9946 7.65978 17.9866 7.6871 17.976 7.71345C17.7849 8.1973 17.4317 8.4397 16.9086 8.44017H11.3483C10.111 8.44017 8.87315 8.43735 7.6358 8.44392C7.49258 8.44392 7.46394 8.40172 7.46816 8.27044C7.47802 7.97788 7.46816 7.68438 7.47192 7.39182C7.47802 6.79498 7.93493 6.33316 8.53223 6.3327C11.3419 6.33051 14.1512 6.33051 16.9603 6.3327C17.4543 6.3327 17.8501 6.63604 17.9905 7.10817C17.9971 7.13007 18.0003 7.15283 17.9999 7.17568V7.63187Z" fill="white"/>
</g>
<defs>
<clipPath id="clip0_415_542">
<rect width="18" height="18" fill="white"/>
</clipPath>
</defs>
</svg>
